<svg width="22" height="20" viewBox="0 0 22 20" fill="none" xmlns="http://www.w3.org/2000/svg">
<path d="M21.25 13.7497V16.7497C21.25 16.9486 21.171 17.1394 21.0304 17.28C20.8897 17.4207 20.6989 17.4997 20.5 17.4997C20.3011 17.4997 20.1104 17.4207 19.9697 17.28C19.8291 17.1394 19.75 16.9486 19.75 16.7497V15.56L19.5428 15.7681C19.2522 16.0841 15.76 19.7497 10 19.7497C4.10879 19.7497 0.589411 15.9144 0.442224 15.7513C0.309201 15.6027 0.240643 15.4074 0.251632 15.2083C0.26262 15.0091 0.352255 14.8226 0.500818 14.6895C0.64938 14.5565 0.844701 14.488 1.04381 14.4989C1.24292 14.5099 1.42951 14.5996 1.56254 14.7481C1.58785 14.7809 4.79691 18.2497 10 18.2497C15.2032 18.2497 18.4122 14.7809 18.4441 14.7472C18.452 14.7374 18.4605 14.728 18.4694 14.7191L18.6897 14.4997H17.5C17.3011 14.4997 17.1104 14.4207 16.9697 14.28C16.8291 14.1394 16.75 13.9486 16.75 13.7497C16.75 13.5508 16.8291 13.36 16.9697 13.2194C17.1104 13.0787 17.3011 12.9997 17.5 12.9997H20.5C20.6989 12.9997 20.8897 13.0787 21.0304 13.2194C21.171 13.36 21.25 13.5508 21.25 13.7497ZM13 6.86188V5.87469C13.0005 5.11634 12.7456 4.37993 12.2764 3.78418C11.8072 3.18843 11.151 2.76808 10.4136 2.59089C9.67626 2.41369 8.90072 2.49 8.21204 2.80749C7.52335 3.12499 6.96166 3.66517 6.61754 4.34094C6.52703 4.5181 6.36986 4.65205 6.18059 4.71332C5.99133 4.77459 5.78547 4.75817 5.60832 4.66766C5.43116 4.57715 5.29721 4.41998 5.23594 4.23072C5.17467 4.04145 5.19109 3.8356 5.2816 3.65844C5.77891 2.68266 6.5903 1.90276 7.58499 1.44445C8.57969 0.986142 9.69973 0.876125 10.7646 1.13213C11.8294 1.38814 12.7771 1.99526 13.4547 2.85563C14.1324 3.716 14.5006 4.77949 14.5 5.87469V14.4997C14.5 14.6986 14.421 14.8894 14.2804 15.03C14.1397 15.1707 13.9489 15.2497 13.75 15.2497C13.5511 15.2497 13.3604 15.1707 13.2197 15.03C13.0791 14.8894 13 14.6986 13 14.4997V13.8875C12.311 14.5505 11.4422 14.9962 10.5018 15.1692C9.5614 15.3422 8.59087 15.2349 7.71102 14.8605C6.83117 14.4861 6.08085 13.8612 5.55344 13.0636C5.02603 12.266 4.74483 11.3309 4.74483 10.3747C4.74483 9.41849 5.02603 8.48341 5.55344 7.68581C6.08085 6.88822 6.83117 6.26333 7.71102 5.88893C8.59087 5.51453 9.5614 5.40714 10.5018 5.58014C11.4422 5.75314 12.311 6.19887 13 6.86188ZM13 10.3747C13 9.70718 12.8021 9.05466 12.4312 8.49964C12.0604 7.94463 11.5333 7.51204 10.9166 7.2566C10.2999 7.00115 9.62129 6.93432 8.96661 7.06454C8.31192 7.19477 7.71055 7.5162 7.23855 7.98821C6.76655 8.46021 6.44511 9.06158 6.31489 9.71626C6.18466 10.3709 6.2515 11.0495 6.50694 11.6662C6.76239 12.2829 7.19497 12.8101 7.74999 13.1809C8.305 13.5518 8.95752 13.7497 9.62504 13.7497C10.0682 13.7497 10.5071 13.6624 10.9166 13.4928C11.3261 13.3232 11.6981 13.0746 12.0115 12.7612C12.3249 12.4478 12.5735 12.0757 12.7431 11.6662C12.9127 11.2568 13 10.8179 13 10.3747Z" fill="white"/>
</svg>
