<svg width="26" height="26" viewBox="0 0 26 26" fill="none" xmlns="http://www.w3.org/2000/svg">
<g clip-path="url(#clip0_17_3281)">
<path d="M0 13C0 5.8203 5.8203 0 13 0V0C20.1797 0 26 5.8203 26 13V13C26 20.1797 20.1797 26 13 26V26C5.8203 26 0 20.1797 0 13V13Z" fill="#246DD3"/>
<path d="M12.8005 5.616C13.1645 5.43111 13.6138 5.85433 13.4159 6.21111C13.309 6.49422 12.8829 6.56933 12.6561 6.35267C12.4279 6.14467 12.503 5.72867 12.8078 5.60878L12.8005 5.616ZM8.88465 6.02622C9.11287 5.93667 9.38587 6.13022 9.36276 6.35989C9.38587 6.61267 9.06665 6.80767 8.83842 6.68055C8.54231 6.56933 8.57987 6.09989 8.88465 6.02622ZM16.9129 6.68778C16.5633 6.64444 16.5099 6.123 16.8363 6.019C17.1035 5.89911 17.339 6.123 17.3765 6.35989C17.3231 6.56211 17.1483 6.747 16.9129 6.68778ZM9.77442 7.62522C10.1471 7.40133 10.67 7.73644 10.6108 8.14522C10.5963 8.56989 10.0243 8.81544 9.69787 8.53233C9.37865 8.30989 9.43209 7.79567 9.77442 7.62522ZM15.4222 7.87078C15.5898 7.462 16.26 7.44611 16.4492 7.84189C16.6312 8.15244 16.403 8.53955 16.0693 8.64355C15.636 8.71867 15.2171 8.27233 15.4222 7.87078ZM12.3282 8.61467C12.3282 8.26511 12.6633 8.00367 13.0129 7.982C13.2411 8.02533 13.491 8.12355 13.5906 8.346C13.7726 8.65078 13.6138 9.07544 13.2786 9.22422C13.127 9.29789 12.945 9.26755 12.7774 9.26178C12.5261 9.14189 12.3138 8.90355 12.3296 8.62189V8.61467H12.3282ZM6.5042 9.13467C6.83931 8.93389 7.29576 9.29789 7.16576 9.65466C7.09787 9.95367 6.67176 10.0793 6.42909 9.88578C6.16909 9.69944 6.20809 9.26178 6.5042 9.13467ZM19.0189 9.13467C19.3078 8.91222 19.7786 9.16355 19.7411 9.50733C19.7642 9.82655 19.3612 10.0707 19.0723 9.90889C18.7603 9.76733 18.7228 9.31378 19.0189 9.13467ZM13.9705 9.76733C14.2077 9.69013 14.4634 9.69114 14.7 9.77022C14.9369 9.84967 15.1391 10.0028 15.2778 10.2064C15.6273 10.6976 15.4453 11.4559 14.8906 11.7376C14.3201 12.0799 13.4838 11.7896 13.2714 11.18C13.0273 10.6311 13.3783 9.93778 13.9705 9.76733ZM11.1958 9.81933C11.7201 9.581 12.4279 9.78178 12.6778 10.296C12.9811 10.8016 12.7471 11.5007 12.2155 11.7607C11.6811 12.0582 10.9213 11.8343 10.67 11.2912C10.3739 10.7712 10.6324 10.0591 11.1958 9.81933ZM8.41376 10.7337C8.45131 10.4072 8.77053 10.1992 9.09698 10.1761C9.2617 10.1915 9.41627 10.2626 9.53521 10.3776C9.65415 10.4926 9.73037 10.6447 9.75131 10.8088C9.7282 11.1424 9.46242 11.4776 9.09698 11.4776C8.68676 11.5064 8.3372 11.1136 8.41376 10.7337ZM16.624 10.2426C17.0429 10.0201 17.612 10.3552 17.5975 10.8088C17.6264 11.2999 16.9894 11.6408 16.5778 11.3577C16.1444 11.1208 16.1748 10.452 16.624 10.2426ZM10.0633 11.9614C10.305 11.8994 10.5602 11.9166 10.7913 12.0106C11.0224 12.1044 11.2145 12.2706 11.3402 12.4814C11.4672 12.7 11.5117 12.9569 11.4656 13.2055C11.4195 13.454 11.2858 13.6778 11.0889 13.8363C10.5718 14.3043 9.61553 14.1108 9.34109 13.4781C9.02187 12.8989 9.40176 12.1174 10.0633 11.9614ZM15.3312 11.9614C15.8035 11.8271 16.3568 12.0048 16.6081 12.415C16.9504 12.8917 16.7843 13.6052 16.2903 13.9028C15.7573 14.2596 14.9513 14.0732 14.6624 13.5157C14.3129 12.9437 14.6624 12.1319 15.3312 11.9542V11.9614ZM6.93031 12.4887C7.3492 12.3399 7.81142 12.7862 7.64531 13.1892C7.53842 13.5532 7.00687 13.6876 6.73242 13.4117C6.40598 13.1661 6.52731 12.6013 6.93031 12.4887ZM18.3125 13.0766C18.3085 12.9949 18.3207 12.9133 18.3485 12.8364C18.3762 12.7596 18.419 12.689 18.4743 12.6288C18.5878 12.5057 18.7448 12.4316 18.912 12.4222C19.1936 12.467 19.4753 12.6909 19.4522 12.9957C19.4825 13.39 18.9813 13.6644 18.6318 13.4723C18.4642 13.3972 18.3804 13.2326 18.3125 13.0766ZM4.86331 12.6909C5.12042 12.5854 5.43242 12.7949 5.37176 13.0621C5.35731 13.3669 4.89365 13.4853 4.71887 13.2326C4.56576 13.0549 4.65676 12.7862 4.87053 12.6909H4.86331ZM20.7898 12.6909C20.9732 12.5638 21.2534 12.6461 21.3228 12.8469C21.4441 13.0693 21.2231 13.3669 20.9732 13.3293C20.615 13.3597 20.4936 12.8382 20.7898 12.6822V12.6909ZM11.4312 14.1483C12.0928 13.9851 12.8078 14.5196 12.815 15.1739C12.8525 15.8441 12.1534 16.4392 11.4688 16.2832C11.2109 16.238 10.9769 16.1041 10.8072 15.9048C10.6393 15.7074 10.548 15.4561 10.5501 15.197C10.5501 14.7131 10.93 14.2523 11.4312 14.1556V14.1483ZM14.0615 14.1483C14.739 13.9692 15.4684 14.5123 15.4612 15.1883C15.4988 15.8369 14.8141 16.4089 14.1468 16.2746C13.5228 16.2009 13.0576 15.5379 13.2339 14.9514C13.2864 14.7553 13.3911 14.577 13.5368 14.4356C13.6826 14.2942 13.8639 14.1949 14.0615 14.1483ZM8.98287 14.5571C9.4552 14.4834 9.89576 14.9803 9.69787 15.405C9.56065 15.8586 8.87742 15.9857 8.57265 15.613C8.21587 15.2562 8.48165 14.6019 8.98287 14.5571ZM16.7078 14.5802C17.118 14.4083 17.6351 14.7579 17.5975 15.1898C17.6192 15.6664 16.9894 16.0001 16.5778 15.717C16.1228 15.4642 16.1979 14.7276 16.7078 14.5802ZM18.86 16.6617C18.6996 16.3641 18.9958 15.9784 19.3309 16.0304C19.4984 16.0304 19.6198 16.1561 19.7266 16.2673C19.7483 16.4392 19.7873 16.64 19.6342 16.7816C19.4291 17.0271 18.9726 16.952 18.8585 16.6617H18.86ZM6.49698 16.1128C6.80898 15.9106 7.25676 16.2153 7.19031 16.5649C7.15131 16.8856 6.74109 17.0632 6.47387 16.8856C6.18498 16.7209 6.19365 16.2616 6.49698 16.1128ZM12.7225 16.7743C13.1342 16.5952 13.6585 16.9448 13.621 17.3767C13.6513 17.8591 13.0056 18.1942 12.6026 17.9039C12.1462 17.6583 12.2213 16.9217 12.724 16.7743H12.7225ZM9.83365 17.42C10.1919 17.2423 10.6642 17.5471 10.6252 17.9256C10.6396 18.239 10.3219 18.5062 10.0099 18.4542C9.74409 18.4542 9.56931 18.2231 9.48553 18.0079C9.48553 17.7696 9.59098 17.5096 9.84231 17.4128L9.83365 17.42ZM15.6894 17.42C16.0462 17.2048 16.5561 17.5168 16.5258 17.9183C16.533 18.3517 15.9552 18.6189 15.6129 18.343C15.5395 18.2879 15.4814 18.2152 15.4439 18.1315C15.4064 18.0479 15.3907 17.956 15.3984 17.8647C15.406 17.7733 15.4367 17.6854 15.4876 17.6091C15.5385 17.5329 15.608 17.4708 15.6894 17.4287V17.42ZM16.7005 19.838C16.5416 19.6156 16.7294 19.3252 16.9894 19.2732C17.2018 19.3166 17.4228 19.4668 17.3693 19.6964C17.3462 20.0171 16.8666 20.1139 16.7005 19.8452V19.838ZM8.63331 19.6372C8.69398 19.4509 8.84709 19.266 9.07387 19.318C9.40898 19.3397 9.5072 19.8236 9.21831 19.9723C8.95253 20.1356 8.65642 19.9044 8.63331 19.6372ZM12.5261 19.8539C12.5868 19.578 12.9594 19.4437 13.2021 19.5939C13.3552 19.6603 13.4086 19.8308 13.4462 19.9796L13.3855 20.202C13.2859 20.3219 13.1573 20.4331 12.997 20.4259C12.6864 20.4634 12.4048 20.1298 12.5261 19.8539Z" fill="white"/>
</g>
<defs>
<clipPath id="clip0_17_3281">
<rect width="26" height="26" fill="white"/>
</clipPath>
</defs>
</svg>
