<svg width="16" height="20" viewBox="0 0 16 20" fill="none" xmlns="http://www.w3.org/2000/svg">
<path d="M15.8605 9.72389C14.811 8.65111 13.4116 7.9171 11.9539 7.63479C11.3125 7.4654 10.6711 7.35248 10.0297 7.29602C11.6623 5.43277 11.3708 2.60966 9.44665 1.02872C7.52249 -0.55222 4.6071 -0.269909 2.97448 1.59334C1.34186 3.45659 1.6334 6.2797 3.55756 7.86064C3.9074 8.14295 4.25725 8.3688 4.6071 8.48172V9.72389L3.67417 8.87696C2.85786 8.08649 1.51678 8.08649 0.642166 8.87696C-0.174143 9.66743 -0.232451 10.9096 0.583858 11.7001L3.26602 14.749C3.38263 15.5395 3.67417 16.2735 4.08233 16.951C4.37387 17.4592 4.78202 17.9674 5.19018 18.3626V19.4354C5.19018 19.7742 5.42341 20 5.77326 20H13.7031C13.9947 20 14.2862 19.7177 14.2862 19.4354V17.9674C15.394 16.6687 15.9771 15.0313 15.9771 13.3939V10.1191C16.0354 9.89328 15.9771 9.78035 15.8605 9.72389ZM3.03279 4.41645C3.03279 2.5532 4.6071 1.08518 6.53126 1.14164C8.45541 1.14164 9.97142 2.66612 9.91311 4.52937C9.91311 5.54569 9.44665 6.44909 8.63034 7.07017V4.24706C8.60056 3.75775 8.37862 3.29799 8.01002 2.96205C7.64141 2.62611 7.15406 2.43942 6.64787 2.44027C5.59833 2.38381 4.66541 3.23074 4.66541 4.24706V7.18309C3.67417 6.61847 3.09109 5.54569 3.03279 4.41645ZM14.8693 13.3375C14.9276 14.8055 14.4028 16.217 13.4116 17.3463C13.295 17.4592 13.1783 17.5721 13.1783 17.7415V18.9272H6.41464V18.1367C6.41464 17.9674 6.29803 17.798 6.18141 17.6851C5.77326 17.3463 5.42341 16.951 5.13187 16.4429C4.78202 15.8783 4.54879 15.2007 4.43218 14.5232C4.43218 14.4102 4.37387 14.2973 4.31556 14.1844L1.51678 10.9661C1.34186 10.7967 1.22524 10.5708 1.22524 10.2885C1.22524 10.0627 1.34186 9.78035 1.51678 9.61097C1.92494 9.27219 2.50802 9.27219 2.91617 9.61097L4.6071 11.2484V12.9422L5.71495 12.3776V4.24706C5.77325 3.85183 6.1231 3.51305 6.58956 3.56952C6.99772 3.56952 7.40587 3.85183 7.40587 4.24706V10.7402L8.57203 10.9661V8.3688C8.63034 8.31234 8.68865 8.31234 8.74695 8.25587C9.15511 8.25587 9.56326 8.31234 9.97142 8.3688V11.2484L10.9043 11.4178V8.48172L11.604 8.65111C11.8956 8.70757 12.1871 8.8205 12.4787 8.93342V11.7565L13.4116 11.9259V9.32866C13.9364 9.5545 14.4028 9.89328 14.811 10.2885L14.8693 13.3375Z" fill="#003D8F"/>
</svg>
