<svg width="26" height="26" viewBox="0 0 26 26" fill="none" xmlns="http://www.w3.org/2000/svg">
<g clip-path="url(#clip0_17_3286)">
<path d="M0 13C0 5.8203 5.8203 0 13 0V0C20.1797 0 26 5.8203 26 13V13C26 20.1797 20.1797 26 13 26V26C5.8203 26 0 20.1797 0 13V13Z" fill="#001B41"/>
<path d="M13 18.8789C14.5592 18.8789 16.0545 18.2595 17.157 17.157C18.2595 16.0545 18.8789 14.5592 18.8789 13C18.8789 11.4408 18.2595 9.94552 17.157 8.84301C16.0545 7.74051 14.5592 7.12112 13 7.12112C11.4408 7.12112 9.94549 7.74051 8.84298 8.84301C7.74048 9.94552 7.12109 11.4408 7.12109 13C7.12109 14.5592 7.74048 16.0545 8.84298 17.157C9.94549 18.2595 11.4408 18.8789 13 18.8789Z" fill="#2C3154"/>
<path d="M13.0001 4.10222C12.8932 4.10222 12.6606 4.20044 12.3761 4.76377C12.1089 5.29099 11.8763 6.05944 11.6914 6.98822C11.3245 8.82555 11.157 11.1338 11.157 13C11.1505 15.017 11.3294 17.0304 11.6914 19.0147C11.8835 19.9391 12.1103 20.709 12.3804 21.2348L12.3819 21.2362C12.6679 21.8024 12.8946 21.8963 13.0001 21.8963C13.107 21.8963 13.3395 21.7995 13.6241 21.2362C13.8913 20.709 14.1239 19.9405 14.3088 19.0132C14.6742 17.173 14.8432 14.8648 14.8432 13C14.8432 11.141 14.68 8.82699 14.3088 6.98822C14.1181 6.06377 13.8899 5.29099 13.6198 4.76666L13.6183 4.76377C13.3323 4.19755 13.1055 4.10222 13.0001 4.10222ZM11.7319 4.43733C12.0352 3.83644 12.4498 3.38144 13.0001 3.38144C13.5519 3.38144 13.9606 3.83933 14.2625 4.43588C14.5789 5.05122 14.8215 5.90055 15.0165 6.84233V6.84522C15.3993 8.74466 15.5654 11.1092 15.5654 13C15.5654 14.898 15.3935 17.2553 15.0165 19.1533C14.8273 20.1081 14.5774 20.9502 14.2683 21.5627C13.965 22.1635 13.5504 22.6186 13.0001 22.6186C12.4483 22.6186 12.0395 22.1621 11.7376 21.5641C11.4213 20.9488 11.1786 20.0994 10.9836 19.1577L10.9808 19.149C10.6107 17.1204 10.4279 15.0621 10.4348 13C10.4348 11.102 10.6066 8.74466 10.9836 6.84666C11.1729 5.89188 11.4228 5.04977 11.7319 4.43733Z" fill="#A3A9D0"/>
<path d="M5.29492 8.54822C5.24147 8.645 5.21547 8.89344 5.55203 9.41778C6.00269 10.049 6.53425 10.621 7.12936 11.1179L7.13225 11.1208C8.66932 12.4288 10.3234 13.5926 12.0737 14.5976C13.8215 15.6116 15.6574 16.4609 17.5582 17.1398H17.5626C18.2919 17.4084 19.0525 17.5832 19.826 17.6598C20.4529 17.6858 20.6508 17.5413 20.7042 17.4518C20.7577 17.355 20.7837 17.1066 20.4471 16.5822C19.9962 15.9504 19.4661 15.3791 18.8698 14.8821L18.8669 14.8792C17.3294 13.5712 15.6748 12.4073 13.924 11.4024C12.179 10.3894 10.3445 9.53886 8.44381 8.86167C7.55114 8.56122 6.77258 8.37344 6.18036 8.34167C5.54769 8.31278 5.34836 8.45867 5.29492 8.54822ZM21.0163 17.6323L21.3282 17.8143C21.0524 18.2881 20.4515 18.4109 19.7827 18.3806H19.7654V18.3791C18.9277 18.2975 18.104 18.1091 17.3141 17.8187C15.3718 17.1269 13.4973 16.258 11.714 15.223C9.92596 14.1962 8.23608 13.0073 6.66569 11.6711C6.01996 11.133 5.44614 10.514 4.95836 9.82944L4.94825 9.815C4.58714 9.25455 4.39503 8.66955 4.66803 8.18855L4.67092 8.18567C4.94681 7.71189 5.54914 7.58911 6.21647 7.61944H6.21936C6.90836 7.657 7.76203 7.86933 8.67781 8.17844L8.68358 8.18133C10.6263 8.87257 12.5014 9.74097 14.2851 10.7756C16.0738 11.8027 17.7641 12.9922 19.3349 14.3289L19.1009 14.6033L19.332 14.326H19.3335C19.9791 14.8648 20.5526 15.4844 21.0408 16.1691L21.0509 16.1836C21.412 16.744 21.6041 17.329 21.3311 17.81L21.0163 17.6323Z" fill="#A3A9D0"/>
<path d="M19.8266 8.34021C19.0531 8.4168 18.2925 8.59154 17.5632 8.86021H17.5588C15.657 9.53769 13.8216 10.3887 12.0757 11.4024C10.3261 12.4071 8.67244 13.5704 7.13573 14.8778C6.43084 15.496 5.88195 16.081 5.55551 16.5764C5.21606 17.1051 5.24062 17.3535 5.29551 17.4518C5.34895 17.5413 5.55117 17.6858 6.17373 17.6598C6.94722 17.5832 7.70781 17.4084 8.43717 17.1398H8.44151C10.3433 16.4623 12.1788 15.6113 13.9246 14.5975C15.6743 13.593 17.328 12.4296 18.8646 11.1222C19.5695 10.504 20.1184 9.91899 20.4448 9.42354C20.7857 8.89487 20.7597 8.64643 20.7048 8.54821C20.6514 8.45865 20.4492 8.31421 19.8266 8.34021ZM4.98206 17.6323L4.66862 17.8114C4.39417 17.3304 4.58773 16.7454 4.95029 16.1835L4.95173 16.1807C5.33017 15.6072 5.93395 14.9717 6.66051 14.3332L6.66484 14.3303C8.23555 12.9931 9.92593 11.8031 11.7146 10.7755C13.4978 9.74054 15.3724 8.87166 17.3147 8.17987C18.1046 7.88945 18.9283 7.70112 19.766 7.61943L19.7847 7.61799C20.4448 7.5891 21.053 7.71043 21.3303 8.18421V8.1871C21.6047 8.6681 21.4126 9.2531 21.0501 9.81499V9.81787C20.6702 10.3913 20.0678 11.0269 19.3398 11.6668L19.3355 11.6697C17.7647 13.0064 16.0744 14.1958 14.2857 15.223C12.5025 16.2575 10.6279 17.1259 8.68562 17.8172C7.89575 18.1077 7.07201 18.296 6.2344 18.3777L6.21562 18.3791C5.55551 18.408 4.9474 18.2867 4.67006 17.8129L4.98206 17.6323Z" fill="#A3A9D0"/>
<path d="M13.0005 14.1758C13.3123 14.1758 13.6114 14.0519 13.8319 13.8314C14.0524 13.6109 14.1763 13.3118 14.1763 13C14.1763 12.6882 14.0524 12.3891 13.8319 12.1686C13.6114 11.9481 13.3123 11.8242 13.0005 11.8242C12.6887 11.8242 12.3896 11.9481 12.1691 12.1686C11.9486 12.3891 11.8247 12.6882 11.8247 13C11.8247 13.3118 11.9486 13.6109 12.1691 13.8314C12.3896 14.0519 12.6887 14.1758 13.0005 14.1758ZM6.24049 11.8242C6.47417 11.8242 6.69829 11.7314 6.86353 11.5662C7.02877 11.4009 7.1216 11.1768 7.1216 10.9431C7.1216 10.7094 7.02877 10.4853 6.86353 10.3201C6.69829 10.1548 6.47417 10.062 6.24049 10.062C6.0068 10.062 5.78269 10.1548 5.61745 10.3201C5.45221 10.4853 5.35938 10.7094 5.35938 10.9431C5.35938 11.1768 5.45221 11.4009 5.61745 11.5662C5.78269 11.7314 6.0068 11.8242 6.24049 11.8242ZM11.5315 20.0532C11.7652 20.0532 11.9893 19.9604 12.1545 19.7952C12.3198 19.6299 12.4126 19.4058 12.4126 19.1721C12.4126 18.9384 12.3198 18.7143 12.1545 18.5491C11.9893 18.3838 11.7652 18.291 11.5315 18.291C11.2978 18.291 11.0737 18.3838 10.9084 18.5491C10.7432 18.7143 10.6504 18.9384 10.6504 19.1721C10.6504 19.4058 10.7432 19.6299 10.9084 19.7952C11.0737 19.9604 11.2978 20.0532 11.5315 20.0532ZM17.4089 9.47267C17.6426 9.47267 17.8667 9.37984 18.032 9.2146C18.1972 9.04936 18.29 8.82525 18.29 8.59156C18.29 8.35788 18.1972 8.13376 18.032 7.96852C17.8667 7.80328 17.6426 7.71045 17.4089 7.71045C17.1752 7.71045 16.9511 7.80328 16.7859 7.96852C16.6207 8.13376 16.5278 8.35788 16.5278 8.59156C16.5278 8.82525 16.6207 9.04936 16.7859 9.2146C16.9511 9.37984 17.1752 9.47267 17.4089 9.47267Z" fill="#F0F3FA"/>
</g>
<defs>
<clipPath id="clip0_17_3286">
<rect width="26" height="26" fill="white"/>
</clipPath>
</defs>
</svg>
