<svg width="34" height="26" viewBox="0 0 34 26" fill="none" xmlns="http://www.w3.org/2000/svg">
<path d="M31.86 0.32489H2.31905C1.75943 0.32489 1.22272 0.547034 0.827008 0.942452C0.431294 1.33787 0.208984 1.87417 0.208984 2.43338V23.5183C0.208984 24.0775 0.431294 24.6138 0.827008 25.0092C1.22272 25.4046 1.75943 25.6268 2.31905 25.6268H31.86C32.4196 25.6268 32.9563 25.4046 33.352 25.0092C33.7477 24.6138 33.97 24.0775 33.97 23.5183V2.43338C33.97 1.87417 33.7477 1.33787 33.352 0.942452C32.9563 0.547034 32.4196 0.32489 31.86 0.32489ZM30.2352 23.5183H4.0704L11.4556 15.8855L9.93639 14.4201L2.31905 22.2953V4.03583L15.4331 17.0768C15.8285 17.4695 16.3633 17.69 16.9207 17.69C17.4781 17.69 18.0129 17.4695 18.4083 17.0768L31.86 3.70901V22.1583L24.0949 14.3991L22.6073 15.8855L30.2352 23.5183ZM3.70114 2.43338H30.1508L16.9207 15.5798L3.70114 2.43338Z" fill="#001B41"/>
</svg>
