<svg width="78" height="121" viewBox="0 0 78 121" fill="none" xmlns="http://www.w3.org/2000/svg">
<path d="M52 120.5C64.545 120.5 75.53 112.895 78 101L66.625 95.28C65 102.365 60.645 107.5 52 107.5H20.15C25.545 101 29.9 92.29 29.9 81.5C29.9 79.225 29.705 77.015 29.25 75H52V62H24.83C19.5 51.73 13 46.4 13 36C13.002 30.6666 14.8778 25.5034 18.2996 21.4124C21.7215 17.3214 26.4719 14.5626 31.721 13.6181C36.9702 12.6736 42.3843 13.6033 47.0176 16.2448C51.651 18.8864 55.2089 23.0718 57.07 28.07L69.095 23C63.895 9.675 50.96 0.25 35.75 0.25C15.99 0.25 0 16.24 0 36C0 47.57 5.135 54.85 9.75 62H0V75H16.055C16.575 77.015 16.9 79.16 16.9 81.5C16.9 99.05 0 107.5 0 107.5V120.5H52Z" fill="black"/>
</svg>
