<svg width="80" height="80" viewBox="0 0 80 80" fill="none" xmlns="http://www.w3.org/2000/svg">
<path d="M66.6666 6.66669H33.3333C30.6811 6.66669 28.1376 7.72026 26.2622 9.59562C24.3868 11.471 23.3333 14.0145 23.3333 16.6667V40C23.3333 42.6522 24.3868 45.1957 26.2622 47.0711C28.1376 48.9465 30.6811 50 33.3333 50H66.6666C69.3188 50 71.8623 48.9465 73.7377 47.0711C75.613 45.1957 76.6666 42.6522 76.6666 40V16.6667C76.6666 14.0145 75.613 11.471 73.7377 9.59562C71.8623 7.72026 69.3188 6.66669 66.6666 6.66669ZM69.9999 40C69.9999 40.8841 69.6487 41.7319 69.0236 42.357C68.3985 42.9822 67.5506 43.3334 66.6666 43.3334H33.3333C32.4492 43.3334 31.6014 42.9822 30.9762 42.357C30.3511 41.7319 29.9999 40.8841 29.9999 40V16.6667C29.9999 15.7826 30.3511 14.9348 30.9762 14.3097C31.6014 13.6845 32.4492 13.3334 33.3333 13.3334H66.6666C67.5506 13.3334 68.3985 13.6845 69.0236 14.3097C69.6487 14.9348 69.9999 15.7826 69.9999 16.6667V40ZM58.3333 26.6667C57.0992 26.6709 55.9109 27.1343 54.9999 27.9667C54.2831 27.3152 53.3926 26.8859 52.4364 26.731C51.4803 26.5761 50.4997 26.7023 49.6139 27.0942C48.7281 27.4861 47.9752 28.1269 47.4467 28.9386C46.9182 29.7503 46.6369 30.6981 46.6369 31.6667C46.6369 32.6353 46.9182 33.5831 47.4467 34.3948C47.9752 35.2065 48.7281 35.8473 49.6139 36.2392C50.4997 36.6311 51.4803 36.7572 52.4364 36.6023C53.3926 36.4475 54.2831 36.0182 54.9999 35.3667C55.6019 35.9138 56.3282 36.3058 57.1159 36.5086C57.9036 36.7115 58.729 36.7191 59.5203 36.5308C60.3116 36.3425 61.045 35.964 61.657 35.4281C62.2689 34.8922 62.7409 34.2151 63.0319 33.4555C63.3229 32.6959 63.4242 31.8768 63.327 31.0692C63.2299 30.2616 62.9371 29.4899 62.4742 28.8211C62.0113 28.1522 61.3922 27.6064 60.6706 27.231C59.949 26.8556 59.1467 26.6619 58.3333 26.6667ZM53.3333 56.6667C52.4492 56.6667 51.6014 57.0179 50.9762 57.643C50.3511 58.2681 49.9999 59.116 49.9999 60V63.3334C49.9999 64.2174 49.6487 65.0653 49.0236 65.6904C48.3985 66.3155 47.5506 66.6667 46.6666 66.6667H13.3333C12.4492 66.6667 11.6014 66.3155 10.9762 65.6904C10.3511 65.0653 9.99992 64.2174 9.99992 63.3334V50H13.3333C14.2173 50 15.0652 49.6488 15.6903 49.0237C16.3154 48.3986 16.6666 47.5507 16.6666 46.6667C16.6666 45.7826 16.3154 44.9348 15.6903 44.3097C15.0652 43.6845 14.2173 43.3334 13.3333 43.3334H9.99992V40C9.99992 39.116 10.3511 38.2681 10.9762 37.643C11.6014 37.0179 12.4492 36.6667 13.3333 36.6667C14.2173 36.6667 15.0652 36.3155 15.6903 35.6904C16.3154 35.0653 16.6666 34.2174 16.6666 33.3334C16.6666 32.4493 16.3154 31.6015 15.6903 30.9763C15.0652 30.3512 14.2173 30 13.3333 30C10.6811 30 8.13755 31.0536 6.26218 32.929C4.38682 34.8043 3.33325 37.3479 3.33325 40V63.3334C3.33325 65.9855 4.38682 68.5291 6.26218 70.4044C8.13755 72.2798 10.6811 73.3334 13.3333 73.3334H46.6666C49.3188 73.3334 51.8623 72.2798 53.7377 70.4044C55.613 68.5291 56.6666 65.9855 56.6666 63.3334V60C56.6666 59.116 56.3154 58.2681 55.6903 57.643C55.0652 57.0179 54.2173 56.6667 53.3333 56.6667ZM19.9999 60H23.3333C24.2173 60 25.0652 59.6488 25.6903 59.0237C26.3154 58.3986 26.6666 57.5507 26.6666 56.6667C26.6666 55.7826 26.3154 54.9348 25.6903 54.3097C25.0652 53.6845 24.2173 53.3334 23.3333 53.3334H19.9999C19.1159 53.3334 18.268 53.6845 17.6429 54.3097C17.0178 54.9348 16.6666 55.7826 16.6666 56.6667C16.6666 57.5507 17.0178 58.3986 17.6429 59.0237C18.268 59.6488 19.1159 60 19.9999 60Z" fill="#003D8F"/>
</svg>
