<svg width="80" height="80" viewBox="0 0 80 80" fill="none" xmlns="http://www.w3.org/2000/svg">
<path d="M45.69 10.9767C45.381 10.6665 45.0137 10.4206 44.6092 10.253C44.2048 10.0853 43.7711 9.99937 43.3333 10H13.3333C12.4493 10 11.6014 10.3512 10.9763 10.9763C10.3512 11.6014 10 12.4493 10 13.3333V43.3333C10 44.22 10.35 45.0667 10.9767 45.69L37.6433 72.3567C37.9522 72.6673 38.3194 72.9138 38.7238 73.082C39.1283 73.2502 39.562 73.3368 40 73.3368C40.438 73.3368 40.8717 73.2502 41.2762 73.082C41.6806 72.9138 42.0478 72.6673 42.3567 72.3567L72.3567 42.3567C72.6665 42.0474 72.9123 41.68 73.08 41.2756C73.2477 40.8713 73.334 40.4378 73.334 40C73.334 39.5622 73.2477 39.1287 73.08 38.7244C72.9123 38.32 72.6665 37.9526 72.3567 37.6433L45.69 10.9767ZM40 65.2867L16.6667 41.9533V16.6667H41.9533L65.2867 40L40 65.2867Z" fill="#003D8F"/>
<path d="M28.3199 33.3333C31.0905 33.3333 33.3366 31.0873 33.3366 28.3167C33.3366 25.546 31.0905 23.3 28.3199 23.3C25.5493 23.3 23.3032 25.546 23.3032 28.3167C23.3032 31.0873 25.5493 33.3333 28.3199 33.3333Z" fill="#003D8F"/>
</svg>
