<svg width="72" height="60" viewBox="0 0 72 60" fill="none" xmlns="http://www.w3.org/2000/svg">
<path d="M59.3334 30C59.3334 30.884 58.9822 31.7319 58.3571 32.357C57.732 32.9821 56.8841 33.3333 56.0001 33.3333C55.116 33.3333 54.2682 32.9821 53.6431 32.357C53.0179 31.7319 52.6667 30.884 52.6667 30C52.6667 29.1159 53.0179 28.2681 53.6431 27.6429C54.2682 27.0178 55.116 26.6666 56.0001 26.6666C56.8841 26.6666 57.732 27.0178 58.3571 27.6429C58.9822 28.2681 59.3334 29.1159 59.3334 30Z" fill="#003D8F"/>
<path fill-rule="evenodd" clip-rule="evenodd" d="M29.1467 0.833313H39.5201C45.6467 0.833313 50.5001 0.833313 54.2967 1.34331C58.2034 1.86998 61.3667 2.97665 63.8634 5.46998C66.9434 8.55331 67.9267 12.68 68.2834 18.0366C70.2067 18.88 71.6601 20.67 71.8167 22.9366C71.8334 23.14 71.8334 23.3566 71.8334 23.5566V36.4433C71.8334 36.6433 71.8334 36.86 71.8201 37.06C71.6601 39.3266 70.2067 41.12 68.2834 41.9666C67.9267 47.32 66.9434 51.4466 63.8634 54.53C61.3667 57.0233 58.2034 58.13 54.2967 58.6566C50.4967 59.1666 45.6467 59.1666 39.5201 59.1666H29.1467C23.0201 59.1666 18.1667 59.1666 14.3701 58.6566C10.4634 58.13 7.30008 57.0233 4.80341 54.53C2.31008 52.0333 1.20341 48.87 0.676748 44.9633C0.166748 41.1633 0.166748 36.3133 0.166748 30.1866V29.8133C0.166748 23.6866 0.166748 18.8333 0.676748 15.0366C1.20341 11.13 2.31008 7.96665 4.80341 5.46998C7.30008 2.97665 10.4634 1.86998 14.3701 1.34331C18.1701 0.833313 23.0201 0.833313 29.1467 0.833313ZM63.2267 42.5H56.7667C49.6167 42.5 43.4967 37.0733 43.4967 30C43.4967 22.9266 49.6167 17.5 56.7634 17.5H63.2234C62.8434 13.03 61.9867 10.6666 60.3234 9.00665C58.9134 7.59665 56.9801 6.74998 53.6267 6.29998C50.2034 5.83998 45.6867 5.83331 39.3301 5.83331H29.3301C22.9734 5.83331 18.4601 5.83998 15.0301 6.29998C11.6801 6.74998 9.74675 7.59665 8.33675 9.00665C6.92675 10.4166 6.08008 12.35 5.63008 15.7033C5.17008 19.13 5.16341 23.6433 5.16341 30C5.16341 36.3566 5.17008 40.87 5.63008 44.3C6.08008 47.65 6.92675 49.5833 8.33675 50.9933C9.74675 52.4033 11.6801 53.25 15.0334 53.7C18.4601 54.16 22.9734 54.1666 29.3301 54.1666H39.3301C45.6867 54.1666 50.2034 54.16 53.6301 53.7C56.9801 53.25 58.9134 52.4033 60.3234 50.9933C61.9867 49.3333 62.8467 46.9733 63.2267 42.5ZM65.7467 22.5H56.7667C52.0201 22.5 48.4967 26.03 48.4967 30C48.4967 33.97 52.0201 37.5 56.7634 37.5H65.8234C66.5101 37.4566 66.8067 36.9933 66.8301 36.7133V23.2866C66.8067 23.0066 66.5101 22.5433 65.8234 22.5033H65.7434L65.7467 22.5ZM19.3334 17.5C19.9965 17.5 20.6323 17.7634 21.1012 18.2322C21.57 18.7011 21.8334 19.3369 21.8334 20V40C21.8334 40.663 21.57 41.2989 21.1012 41.7677C20.6323 42.2366 19.9965 42.5 19.3334 42.5C18.6704 42.5 18.0345 42.2366 17.5656 41.7677C17.0968 41.2989 16.8334 40.663 16.8334 40V20C16.8334 19.3369 17.0968 18.7011 17.5656 18.2322C18.0345 17.7634 18.6704 17.5 19.3334 17.5Z" fill="#003D8F"/>
</svg>
