<svg width="83" height="82" viewBox="0 0 83 82" fill="none" xmlns="http://www.w3.org/2000/svg">
<path d="M45.5554 63.3815V63.3814C45.5404 59.4334 45.5454 55.4844 45.5504 51.5368C45.5526 49.7671 45.5549 47.9977 45.5553 46.2288C42.896 50.7124 40.2415 55.1951 37.5917 59.6768C37.2742 60.2235 36.8186 60.9566 35.7933 60.9769L35.7928 60.977C35.2744 60.9866 34.8762 60.8104 34.5644 60.53C34.2755 60.2702 34.0726 59.9293 33.9084 59.6462L33.9077 59.645C30.5421 53.8019 27.1707 47.962 23.7933 42.1253C23.7068 41.9763 23.6185 41.8335 23.5191 41.6732C22.4932 42.0104 21.4692 42.3394 20.4484 42.6674C17.7815 43.5242 15.1359 44.3742 12.5325 45.3451L12.5324 45.3451C10.0783 46.2598 8.54494 48.2024 7.85305 50.7807C7.65658 51.513 7.56108 52.2553 7.46086 53.0343C7.41881 53.3612 7.37593 53.6945 7.32441 54.0362L7.32436 54.0365C7.24484 54.5617 7.16811 55.1018 7.09098 55.6446C6.998 56.299 6.90446 56.9573 6.80477 57.5986C6.71708 58.1629 6.4938 58.6533 6.12645 58.9919C5.74992 59.3389 5.26078 59.489 4.73525 59.4263L4.73426 59.4262C4.18956 59.36 3.72832 59.0961 3.4372 58.6543C3.15191 58.2212 3.06517 57.6719 3.14697 57.0862L3.14721 57.0845C3.23623 56.4624 3.31698 55.8311 3.39832 55.1952C3.60529 53.577 3.81611 51.9288 4.17689 50.3254L4.17697 50.3251C5.15455 45.995 7.84417 43.004 12.0537 41.5527L45.5554 63.3815ZM45.5554 63.3815C45.5794 69.3718 48.0191 74.1775 52.6776 77.8159C49.0361 77.8157 45.3946 77.8134 41.7533 77.8111C30.2927 77.8039 18.8331 77.7967 7.374 77.8544H7.37393C6.17474 77.8605 5.28481 77.6225 4.76555 77.1127C4.27422 76.6304 3.99116 75.7751 4.3174 74.2202C4.65721 72.602 4.87593 70.9466 5.09175 69.3133C5.18378 68.6167 5.27528 67.9242 5.37542 67.2403C5.40716 67.0383 5.42758 66.8348 5.43666 66.6306L5.43669 66.6306L5.43686 66.6255C5.454 66.1242 5.31488 65.6591 5.02483 65.2989C4.73298 64.9366 4.312 64.7108 3.82676 64.6542C3.34514 64.5979 2.87803 64.7158 2.50727 65.0028C2.13627 65.29 1.89456 65.7208 1.81467 66.232L1.81465 66.2322C1.77149 66.5089 1.72822 66.7858 1.68494 67.0627C1.28824 69.6011 0.890163 72.1483 0.562615 74.7049C0.314276 76.637 0.814048 78.3426 1.91068 79.5678C3.00632 80.792 4.65411 81.4879 6.61001 81.488C25.4158 81.504 44.2215 81.504 63.0272 81.488C66.8845 81.4847 70.5247 80.5395 73.7253 78.2558C78.8604 74.594 81.4605 69.5439 81.4951 63.2591C81.5254 57.8312 81.5187 52.403 81.512 46.9771C81.5091 44.6695 81.5063 42.3623 81.5063 40.0557C81.5063 40.0125 81.507 39.9643 81.5077 39.9127C81.5101 39.7502 81.5129 39.5534 81.4962 39.3703L81.4962 39.3699C81.4519 38.8881 81.315 38.4314 81.0449 38.0443C80.7715 37.6525 80.3817 37.361 79.8831 37.1843C79.3888 37.0092 78.9061 36.9834 78.4461 37.1107C77.9912 37.2367 77.5948 37.5022 77.2497 37.8513L77.2429 37.8582L77.2364 37.8653C76.9 38.2329 76.5305 38.5691 76.1327 38.8696C74.7789 39.8051 72.8614 40.2351 70.9659 40.1125C69.0651 39.9896 67.2726 39.3174 66.1461 38.1528L66.1459 38.1526C64.6468 36.6042 62.4179 36.6438 60.9204 38.1095L60.919 38.1109C59.6678 39.3452 58.1137 39.8953 56.3291 40.108L56.3287 40.108C55.5903 40.1966 54.8938 40.0558 54.1644 39.8273C53.8822 39.7389 53.6046 39.6407 53.3172 39.539C53.2298 39.5081 53.1416 39.4768 53.052 39.4454C52.6737 39.3129 52.2792 39.1806 51.8721 39.078L51.8721 39.0779L51.8614 39.0754C51.025 38.8842 50.2689 38.4381 49.6977 37.7992C48.4586 36.413 46.4151 36.96 45.7186 38.5637L45.7185 38.5636L45.7152 38.5716C45.5719 38.9178 45.4059 39.2543 45.2185 39.5789C42.0712 44.8738 38.9214 50.167 35.769 55.4588C35.7184 55.3728 35.6686 55.2876 35.6187 55.2014C32.4719 49.7483 29.324 44.3015 26.1751 38.8612C25.8798 38.3511 25.549 37.9312 25.0567 37.7453C24.5665 37.5602 24.037 37.6529 23.47 37.8358L23.4696 37.8359M45.5554 63.3815L23.4696 37.8359M23.4696 37.8359C22.3674 38.1923 21.262 38.545 20.1555 38.898M23.4696 37.8359L20.1555 38.898M20.1555 38.898C17.451 39.7608 14.7401 40.6257 12.0538 41.5526L20.1555 38.898ZM49.2095 42.0916C49.4502 42.1707 49.6887 42.2491 49.9253 42.327C50.9358 42.6595 51.9138 42.9813 52.8923 43.2951L53.0449 42.8189L52.8923 43.2951C56.7829 44.5426 60.1963 43.5162 63.186 41.0291C63.2922 40.9409 63.3683 40.8817 63.4324 40.8413C63.495 40.8019 63.5223 40.796 63.5268 40.7952C63.5269 40.7952 63.527 40.7952 63.527 40.7952C63.5277 40.7953 63.5289 40.7956 63.5309 40.7961C63.5338 40.7968 63.5387 40.7983 63.5457 40.8012C63.576 40.8135 63.6376 40.8475 63.7362 40.9368L63.7363 40.9368C67.4102 44.2609 73.3682 44.8037 77.689 42.261L77.6906 42.2601L77.7949 42.1982L77.7944 42.2716L77.7944 42.2755C77.803 49.2631 77.803 56.2495 77.7944 63.2349C77.7867 70.6498 72.8033 76.4753 65.4753 77.6494C57.7137 78.8917 49.9854 72.8736 49.307 65.0516C49.2395 64.2675 49.2095 63.482 49.2095 62.6947V62.655V62.6153V62.5756V62.536V62.4963V62.4566V62.4169V62.3772V62.3375V62.2978V62.2581V62.2184V62.1788V62.1391V62.0994V62.0597V62.02V61.9803V61.9406V61.9009V61.8612V61.8216V61.7819V61.7422V61.7025V61.6628V61.6231V61.5834V61.5437V61.504V61.4644V61.4247V61.385V61.3453V61.3056V61.2659V61.2262V61.1865V61.1469V61.1072V61.0675V61.0278V60.9881V60.9484V60.9087V60.869V60.8293V60.7897V60.75V60.7103V60.6706V60.6309V60.5912V60.5515V60.5118V60.4721V60.4325V60.3928V60.3531V60.3134V60.2737V60.234V60.1943V60.1546V60.1149V60.0753V60.0356V59.9959V59.9562V59.9165V59.8768V59.8371V59.7974V59.7577V59.7181V59.6784V59.6387V59.599V59.5593V59.5196V59.4799V59.4402V59.4006V59.3609V59.3212V59.2815V59.2418V59.2021V59.1624V59.1227V59.083V59.0434V59.0037V58.964V58.9243V58.8846V58.8449V58.8052V58.7655V58.7258V58.6862V58.6465V58.6068V58.5671V58.5274V58.4877V58.448V58.4083V58.3686V58.329V58.2893V58.2496V58.2099V58.1702V58.1305V58.0908V58.0511V58.0114V57.9718V57.9321V57.8924V57.8527V57.813V57.7733V57.7336V57.6939V57.6543V57.6146V57.5749V57.5352V57.4955V57.4558V57.4161V57.3764V57.3367V57.2971V57.2574V57.2177V57.178V57.1383V57.0986V57.0589V57.0192V56.9795V56.9399V56.9002V56.8605V56.8208V56.7811V56.7414V56.7017V56.662V56.6223V56.5827V56.543V56.5033V56.4636V56.4239V56.3842V56.3445V56.3048V56.2652V56.2255V56.1858V56.1461V56.1064V56.0667V56.027V55.9873V55.9476V55.908V55.8683V55.8286V55.7889V55.7492V55.7095V55.6698V55.6301V55.5904V55.5508V55.5111V55.4714V55.4317V55.392V55.3523V55.3126V55.2729V55.2332V55.1936V55.1539V55.1142V55.0745V55.0348V54.9951V54.9554V54.9157V54.876V54.8364V54.7967V54.757V54.7173V54.6776V54.6379V54.5982V54.5585V54.5189V54.4792V54.4395V54.3998V54.3601V54.3204V54.2807V54.241V54.2013V54.1617V54.122V54.0823V54.0426V54.0029V53.9632V53.9235V53.8838V53.8441V53.8045V53.7648V53.7251V53.6854V53.6457V53.606V53.5663V53.5266V53.4869V53.4473V53.4076V53.3679V53.3282V53.2885V53.2488V53.2091V53.1694V53.1298V53.0901V53.0504V53.0107V52.971V52.9313V52.8916V52.8519V52.8122V52.7726V52.7329V52.6932V52.6535V52.6138V52.5741V52.5344V52.4947V52.455V52.4154V52.3757V52.336V52.2963V52.2566V52.2169V52.1772V52.1375V52.0978V52.0582V52.0185V51.9788V51.9391V51.8994V51.8597V51.82V51.7803V51.7406V51.701V51.6613V51.6216V51.5819V51.5422V51.5025V51.4628V51.4231V51.3835V51.3438V51.3041V51.2644V51.2247V51.185V51.1453V51.1056V51.0659V51.0263V50.9866V50.9469V50.9072V50.8675V50.8278V50.7881V50.7484V50.7087V50.6691V50.6294V50.5897V50.55V50.5103V50.4706V50.4309V50.3912V50.3515V50.3119V50.2722V50.2325V50.1928V50.1531V50.1134V50.0737V50.034V49.9943V49.9547V49.915V49.8753V49.8356V49.7959V49.7562V49.7165V49.6768V49.6372V49.5975V49.5578V49.5181V49.4784V49.4387V49.399V49.3593V49.3196V49.28V49.2403V49.2006V49.1609V49.1212V49.0815V49.0418V49.0021V48.9624V48.9228V48.8831V48.8434V48.8037V48.764V48.7243V48.6846V48.6449V48.6052V48.5656V48.5259V48.4862V48.4465V48.4068V48.3671V48.3274V48.2877V48.248V48.2084V48.1687V48.129V48.0893V48.0496V48.0099V47.9702V47.9305V47.8909V47.8512V47.8115V47.7718V47.7321V47.6924V47.6527V47.613V47.5733V47.5337V47.494V47.4543V47.4146V47.3749V47.3352V47.2955V47.2558V47.2161V47.1765V47.1368V47.0971V47.0574V47.0177V46.978V46.9383V46.8986V46.8589V46.8193V46.7796V46.7399V46.7002V46.6605V46.6208V46.5811V46.5414V46.5017V46.4621V46.4224V46.3827V46.343V46.3033V46.2636V46.2239V46.1842V46.1446V46.1049V46.0652V46.0255V45.9858V45.9461V45.9064V45.8667V45.827V45.7874V45.7477V45.708V45.6683V45.6286V45.5889V45.5492V45.5095V45.4698V45.4302V45.3905V45.3508V45.3111V45.2714V45.2317V45.192V45.1523V45.1126V45.073V45.0333V44.9936V44.9539V44.9142V44.8745V44.8348V44.7951V44.7555V44.7158V44.6761V44.6364V44.5967V44.557V44.5173V44.4776V44.4379V44.3983V44.3586V44.3189V44.2792V44.2395V44.1998V44.1601V44.1204V44.0807V44.0411V44.0014V43.9617V43.922V43.8823V43.8426V43.8029V43.7632V43.7235V43.6839V43.6442V43.6045V43.5648V43.5251V43.4854V43.4457V43.406V43.3663V43.3267V43.287V43.2473V43.2076V43.1679V43.1282V43.0885V43.0488V43.0092V42.9695V42.9298V42.8901V42.8504V42.8107V42.771V42.7313V42.6916V42.652V42.6123V42.5726V42.5329V42.4932V42.4535V42.4138V42.3741V42.0916Z" fill="#003D8F" stroke="#003D8F"/>
<path d="M49.0623 19.0962C49.0824 15.8322 48.6075 13.3479 47.6691 11.398L47.6686 11.397C45.5096 6.88444 41.8212 4.6157 36.882 4.22504L49.0623 19.0962ZM49.0623 19.0962C48.8057 24.4285 46.9937 29.8176 42.7043 34.1935C40.9462 35.9842 38.8906 37.193 36.3805 37.3907C36.3805 37.3907 36.3804 37.3907 36.3804 37.3907L36.4197 37.8891L49.0623 19.0962ZM52.6697 18.3255H52.6697V18.319C52.6697 18.1406 52.6742 17.9505 52.6789 17.7537C52.6895 17.3041 52.701 16.8196 52.6615 16.3594L52.6615 16.3587C52.2212 11.3094 50.3354 6.90971 46.1223 3.76455C42.5837 1.11874 38.5377 0.279595 34.2314 0.547472C27.5126 0.964628 21.9075 5.18548 19.8097 11.5871C18.1174 16.7459 18.555 21.8765 20.2174 26.8925L20.2174 26.8927C21.721 31.4234 24.1182 35.4358 28.0527 38.3929L28.0531 38.3932C32.8455 41.9868 38.5171 42.0338 43.3303 38.4557C44.584 37.5276 45.7207 36.4517 46.7159 35.2514L46.7174 35.2495C50.7516 30.3356 52.5883 24.6094 52.6697 18.3255ZM29.1684 34.5505C25.6803 31.2939 23.7851 27.1572 22.8639 22.4994C22.2728 19.4893 22.2391 16.4931 23.0539 13.5435C24.9844 6.56964 30.9745 3.75949 36.8819 4.22503L29.1684 34.5505Z" fill="#003D8F" stroke="#003D8F"/>
<path d="M37.0954 74.1556C37.0899 74.5115 36.9429 74.8508 36.6869 75.0986C36.4308 75.3464 36.0867 75.4825 35.7301 75.477C35.3735 75.4715 35.0337 75.3248 34.7855 75.0692C34.5372 74.8135 34.4009 74.4699 34.4064 74.114C34.4213 73.767 34.5661 73.4383 34.812 73.1927C35.058 72.9471 35.3873 72.8026 35.7349 72.7877C36.0962 72.7915 36.4415 72.9371 36.6961 73.1931C36.9507 73.4491 37.0942 73.7948 37.0954 74.1556Z" fill="#003D8F"/>
<path d="M37.0698 65.7889C37.0692 65.9678 37.0332 66.1449 36.964 66.3099C36.8948 66.4749 36.7937 66.6247 36.6664 66.7507C36.5392 66.8767 36.3883 66.9765 36.2224 67.0442C36.0565 67.1119 35.8789 67.1464 35.6997 67.1455C35.3516 67.1393 35.0197 66.9977 34.7746 66.7509C34.5295 66.5041 34.3905 66.1716 34.3872 65.8241C34.3866 65.6455 34.4213 65.4685 34.4892 65.3032C34.5572 65.138 34.6572 64.9878 34.7835 64.8611C34.9097 64.7345 35.0597 64.634 35.2249 64.5654C35.3901 64.4967 35.5672 64.4613 35.7461 64.4611C36.094 64.4746 36.4238 64.619 36.6693 64.8653C36.9149 65.1117 37.0579 65.4416 37.0698 65.7889Z" fill="#003D8F"/>
<path d="M73.0011 57.032C73.0011 59.1024 73.0011 61.1728 73.0011 63.2446C72.9913 68.2507 69.2987 72.5273 64.611 72.965C59.4639 73.4447 55.0779 70.1102 54.159 64.9942C54.0575 64.4013 54.008 63.8003 54.011 63.1984C53.9983 58.9131 54.011 54.6279 54.011 50.3398C54.011 48.9817 54.3704 48.6148 55.6882 48.6682C58.162 48.7873 60.6248 48.2613 62.8465 47.1396C63.0662 47.0489 63.3014 47.0039 63.5382 47.0071C63.7751 47.0103 64.009 47.0618 64.2263 47.1584C66.4283 48.2651 68.867 48.7849 71.3169 48.6697C72.6784 48.6176 73.0082 48.9586 73.0082 50.3861C73.0016 52.6014 72.9993 54.8167 73.0011 57.032ZM56.3703 51.1359V51.945C56.3703 55.6754 56.3703 59.4053 56.3703 63.1348C56.3703 67.3059 59.5133 70.6101 63.4723 70.6245C67.4735 70.639 70.6207 67.3506 70.6277 63.1333C70.6352 59.3769 70.6352 55.6229 70.6277 51.8713C70.6277 51.6372 70.6066 51.4046 70.5939 51.1489C70.3374 51.1316 70.1302 51.1171 69.9244 51.1056C67.9879 50.9986 66.0979 50.6504 64.3221 49.8399C64.0667 49.7083 63.7849 49.6397 63.499 49.6397C63.2132 49.6397 62.9313 49.7083 62.6759 49.8399C60.707 50.74 58.5929 51.0608 56.3731 51.1359H56.3703Z" fill="#003D8F" stroke="#003D8F"/>
</svg>
