<svg width="20" height="20" viewBox="0 0 20 20" fill="none" xmlns="http://www.w3.org/2000/svg">
<path d="M2.40342 4.46565H2.37442C2.06736 4.48484 1.75965 4.44043 1.47055 4.3352C1.18145 4.22997 0.917192 4.06619 0.694317 3.85411C0.471442 3.64203 0.294751 3.38622 0.17531 3.1027C0.0558687 2.81918 -0.00375146 2.51405 0.000182767 2.20642C0.004117 1.89879 0.0715209 1.59529 0.198174 1.31491C0.324827 1.03454 0.508001 0.783328 0.736227 0.577018C0.964453 0.370708 1.23282 0.213737 1.52451 0.115937C1.81621 0.0181357 2.12495 -0.0183896 2.43142 0.00864766C2.73848 -0.0128027 3.04666 0.0294043 3.33664 0.132623C3.62663 0.235843 3.89217 0.397849 4.11662 0.608487C4.34107 0.819126 4.51959 1.07386 4.64099 1.35671C4.76239 1.63957 4.82406 1.94445 4.82212 2.25225C4.82019 2.56006 4.7547 2.86414 4.62975 3.14545C4.50481 3.42676 4.3231 3.67923 4.09602 3.88703C3.86894 4.09483 3.60139 4.25349 3.31013 4.35306C3.01887 4.45262 2.71018 4.49095 2.40342 4.46565ZM0.417416 7.46565H4.41742V19.4656H0.417416V7.46565ZM14.9174 7.46565C14.2434 7.46747 13.5785 7.62159 12.9725 7.91649C12.3664 8.21138 11.8348 8.63943 11.4174 9.16865V7.46565H7.41742V19.4656H11.4174V13.9656C11.4174 13.4352 11.6281 12.9265 12.0032 12.5514C12.3783 12.1764 12.887 11.9656 13.4174 11.9656C13.9478 11.9656 14.4566 12.1764 14.8316 12.5514C15.2067 12.9265 15.4174 13.4352 15.4174 13.9656V19.4656H19.4174V11.9656C19.4174 10.7722 18.9433 9.62758 18.0994 8.78367C17.2555 7.93975 16.1109 7.46565 14.9174 7.46565Z" fill="white"/>
</svg>
