<svg width="39" height="38" viewBox="0 0 39 38" fill="none" xmlns="http://www.w3.org/2000/svg">
<path d="M19.8101 20.5575C22.4322 20.5575 24.5578 18.4335 24.5578 15.8134C24.5578 13.1933 22.4322 11.0693 19.8101 11.0693C17.1881 11.0693 15.0625 13.1933 15.0625 15.8134C15.0625 18.4335 17.1881 20.5575 19.8101 20.5575Z" stroke="#001B41" stroke-width="1.89764" stroke-linecap="round" stroke-linejoin="round"/>
<path d="M19.8088 3.16309C16.4511 3.16309 13.2309 4.49595 10.8566 6.86846C8.4823 9.24097 7.14844 12.4588 7.14844 15.814C7.14844 18.806 7.78462 20.7637 9.52226 22.9302L19.8088 34.7904L30.0954 22.9302C31.833 20.7637 32.4692 18.806 32.4692 15.814C32.4692 12.4588 31.1354 9.24097 28.7611 6.86846C26.3868 4.49595 23.1666 3.16309 19.8088 3.16309V3.16309Z" stroke="#001B41" stroke-width="1.89764" stroke-linecap="round" stroke-linejoin="round"/>
</svg>
