<svg width="457" height="467" viewBox="0 0 457 467" fill="none" xmlns="http://www.w3.org/2000/svg">
<path d="M16.6054 1.1061C56.3522 31.3137 94.8625 63.1553 134.123 93.8487C138.54 98.7066 145.12 97.3817 150.905 97.6909C205.359 97.3376 259.856 97.6909 314.309 97.6909C319.874 98 323.495 92.9212 327.558 90.1389C364.699 60.3288 402.238 30.9604 439.246 0.973602C452.012 31.2375 457.956 63.9409 456.659 96.7611C455.361 129.581 446.853 161.713 431.739 190.875C429.398 147.948 429.796 104.889 425.998 62.0512C408.553 87.7983 392.169 114.296 374.592 139.955C396.408 179.702 417.165 219.714 439.644 258.975C377.815 296.867 319.344 341.825 272.972 397.956C255.414 418.685 241.104 441.959 230.532 466.983C210.526 435.141 221.257 452.586 211.497 436.51C163.978 361.433 92.036 305.125 17.1795 258.754C39.6144 219.449 60.5036 179.26 82.2318 139.513C64.5666 113.899 48.1378 87.4892 30.8259 61.6096C27.072 104.58 27.2929 147.772 25.0847 190.787C-6.1386 132.845 -7.33106 61.8304 16.6054 1.1061ZM297.174 167.601H273.811C273.811 231.844 273.811 296.086 273.811 360.329C288.262 345.517 303.823 331.831 320.359 319.39C320.359 260.344 320.359 201.298 320.359 142.251C312.557 150.642 304.829 159.092 297.174 167.601ZM227.573 225.455C220.153 225.455 212.734 225.101 205.491 224.969C206.153 278.406 204.873 331.844 206.065 385.237C212.115 398.486 224.702 412.176 228.368 426.441C227.131 426.441 229.604 426.441 228.368 426.441C231.901 407.937 254.6 393.098 251.597 373.136C251.288 315.724 251.597 257.959 251.597 200.37C243.25 208.584 235.699 217.285 227.573 225.455ZM159.871 273.328H136.332C136.332 287.327 136.332 301.327 136.332 315.327C152.857 328.453 168.427 342.739 182.924 358.077C182.703 321.421 182.924 284.722 182.924 248.066C175.195 256.457 167.467 264.804 159.871 273.328Z" fill="#DFB93D"/>
</svg>
