<svg width="27" height="27" viewBox="0 0 27 27" fill="none" xmlns="http://www.w3.org/2000/svg">
<path d="M0.961899 0.0130466C3.26434 1.7629 5.49516 3.60742 7.76946 5.38542C8.02529 5.66683 8.40647 5.59008 8.7416 5.60799C11.896 5.58752 15.0529 5.60799 18.2072 5.60799C18.5296 5.6259 18.7393 5.33169 18.9747 5.17052C21.1262 3.44369 23.3007 1.74244 25.4446 0.00537109C26.184 1.75849 26.5284 3.65293 26.4532 5.55413C26.3781 7.45533 25.8852 9.31667 25.0097 11.0059C24.8741 8.5193 24.8971 6.02498 24.6771 3.54346C23.6666 5.03493 22.7174 6.5699 21.6992 8.05625C22.963 10.3587 24.1654 12.6765 25.4676 14.9508C21.886 17.1458 18.4988 19.7501 15.8127 23.0017C14.7955 24.2024 13.9666 25.5507 13.3542 27.0003C12.1953 25.1557 12.8169 26.1663 12.2516 25.235C9.49885 20.886 5.33143 17.6242 0.995158 14.938C2.29476 12.6611 3.50483 10.3331 4.7635 8.03067C3.74019 6.54687 2.78851 5.01703 1.78566 3.51788C1.56821 6.00708 1.581 8.50907 1.45309 11.0008C-0.355607 7.64437 -0.424684 3.53067 0.961899 0.0130466ZM17.2146 9.65773H15.8613C15.8613 13.3792 15.8613 17.1006 15.8613 20.822C16.6984 19.964 17.5998 19.1712 18.5577 18.4505C18.5577 15.0301 18.5577 11.6097 18.5577 8.18928C18.1057 8.67535 17.658 9.16484 17.2146 9.65773ZM13.1828 13.0091C12.753 13.0091 12.3232 12.9886 11.9036 12.9809C11.942 16.0764 11.8678 19.1719 11.9369 22.2649C12.2874 23.0324 13.0165 23.8254 13.2288 24.6518C13.1572 24.6518 13.3004 24.6518 13.2288 24.6518C13.4335 23.5798 14.7484 22.7203 14.5745 21.5639C14.5566 18.2382 14.5745 14.892 14.5745 11.556C14.0909 12.0318 13.6535 12.5358 13.1828 13.0091ZM9.26093 15.7822H7.89738C7.89738 16.5932 7.89738 17.4042 7.89738 18.2152C8.85465 18.9755 9.75659 19.8031 10.5964 20.6916C10.5836 18.5682 10.5964 16.4423 10.5964 14.3189C10.1487 14.805 9.70096 15.2885 9.26093 15.7822Z" fill="#003D8F"/>
</svg>
