<svg width="39" height="38" viewBox="0 0 39 38" fill="none" xmlns="http://www.w3.org/2000/svg">
<path d="M28.9651 3.15607C29.8674 3.15596 30.736 3.49811 31.3955 4.11338C32.055 4.72865 32.4562 5.57115 32.5179 6.47061L32.5259 6.71414V31.2222C32.526 32.1237 32.1836 32.9917 31.5678 33.6508C30.9521 34.3098 30.109 34.7106 29.2088 34.7723L28.9651 34.7802H10.7658C9.86356 34.7804 8.99491 34.4382 8.33541 33.8229C7.67591 33.2077 7.27475 32.3652 7.21299 31.4657L7.20508 31.2222V6.71414C7.20497 5.81256 7.54738 4.94456 8.1631 4.28555C8.77883 3.62655 9.62196 3.22568 10.5221 3.16397L10.7658 3.15607H28.9651ZM28.9651 5.52812H10.7658C10.479 5.52813 10.2019 5.63192 9.98573 5.8203C9.76957 6.00868 9.62899 6.2689 9.58998 6.55284L9.5789 6.71414V31.2222C9.5789 31.8231 10.0252 32.3196 10.6044 32.3971L10.7658 32.4082H28.9651C29.2519 32.4082 29.5291 32.3044 29.7452 32.116C29.9614 31.9276 30.102 31.6674 30.141 31.3835L30.152 31.2222V6.71414C30.152 6.42754 30.0482 6.15064 29.8596 5.93464C29.6711 5.71864 29.4107 5.57816 29.1265 5.53919L28.9651 5.52812ZM21.486 25.3332C21.1752 25.2838 20.8968 25.1131 20.7119 24.8587C20.5271 24.6043 20.4509 24.2869 20.5001 23.9763L20.6647 22.9326H18.3225L18.0978 24.348C18.0416 24.6522 17.8686 24.9225 17.6158 25.1012C17.363 25.2798 17.0503 25.3526 16.7445 25.3042C16.4387 25.2557 16.164 25.0897 15.9789 24.8416C15.7939 24.5936 15.7132 24.283 15.754 23.9763L15.9186 22.9326H14.7317C14.4169 22.9326 14.115 22.8077 13.8924 22.5853C13.6698 22.3628 13.5448 22.0612 13.5448 21.7466C13.5448 21.4321 13.6698 21.1304 13.8924 20.908C14.115 20.6855 14.4169 20.5606 14.7317 20.5606H16.2952L16.6703 18.1885H15.5214C15.2066 18.1885 14.9047 18.0636 14.6821 17.8412C14.4595 17.6187 14.3345 17.3171 14.3345 17.0025C14.3345 16.688 14.4595 16.3863 14.6821 16.1639C14.9047 15.9414 15.2066 15.8165 15.5214 15.8165H17.0454L17.3619 13.824C17.38 13.6648 17.4302 13.511 17.5094 13.3718C17.5887 13.2326 17.6953 13.1109 17.8229 13.0139C17.9505 12.917 18.0964 12.8469 18.2518 12.8079C18.4073 12.7688 18.569 12.7617 18.7273 12.7868C18.8856 12.8119 19.0372 12.8688 19.1728 12.954C19.3085 13.0392 19.4255 13.1511 19.5168 13.2827C19.6081 13.4144 19.6717 13.5631 19.7039 13.72C19.7361 13.8769 19.7361 14.0387 19.704 14.1956L19.4493 15.8133H21.7946L22.1111 13.8224C22.1292 13.6633 22.1794 13.5095 22.2587 13.3702C22.3379 13.231 22.4445 13.1093 22.5721 13.0124C22.6997 12.9154 22.8456 12.8453 23.0011 12.8063C23.1565 12.7673 23.3182 12.7601 23.4765 12.7852C23.6348 12.8103 23.7864 12.8672 23.9221 12.9524C24.0578 13.0377 24.1748 13.1495 24.266 13.2811C24.3573 13.4128 24.421 13.5615 24.4531 13.7184C24.4853 13.8753 24.4854 14.0371 24.4533 14.194L24.1969 15.8133H25.0198C25.3346 15.8133 25.6365 15.9383 25.8591 16.1607C26.0817 16.3831 26.2067 16.6848 26.2067 16.9994C26.2067 17.3139 26.0817 17.6156 25.8591 17.838C25.6365 18.0604 25.3346 18.1854 25.0198 18.1854H23.8218L23.4468 20.5574H24.227C24.5418 20.5574 24.8437 20.6824 25.0662 20.9048C25.2888 21.1272 25.4139 21.4289 25.4139 21.7435C25.4139 22.058 25.2888 22.3597 25.0662 22.5821C24.8437 22.8045 24.5418 22.9295 24.227 22.9295H23.0701L22.8454 24.3464C22.796 24.6569 22.6252 24.9351 22.3706 25.1199C22.116 25.3046 21.7984 25.3808 21.4876 25.3316L21.486 25.3332ZM19.0726 18.1854L18.6975 20.5574H21.0397L21.4164 18.1854H19.0726Z" fill="#001B41"/>
</svg>
