<svg width="22" height="16" viewBox="0 0 22 16" fill="none" xmlns="http://www.w3.org/2000/svg">
<path fill-rule="evenodd" clip-rule="evenodd" d="M8.76403 4.8227V11.1667L14.34 7.9947L8.76403 4.8227ZM11.32 0.47998C12.7493 0.48798 17.8547 0.5427 19.2813 0.92798C20.1987 1.1747 20.9213 1.9027 21.1667 2.8267C21.5627 4.3147 21.6067 7.23998 21.612 7.87198V7.97998L21.6133 7.9947C21.6133 7.9947 21.6133 7.9987 21.612 8.00798V8.11598C21.6067 8.74798 21.5627 11.6747 21.1667 13.1627C20.9213 14.0853 20.1987 14.8133 19.2813 15.0613C17.8067 15.4587 12.4053 15.504 11.1893 15.5093H10.7027C9.48675 15.504 4.08531 15.4587 2.61075 15.0613C1.69331 14.8133 0.970749 14.0853 0.725309 13.1627C0.329309 11.6747 0.285309 8.74798 0.280029 8.11598V7.87198C0.285309 7.23998 0.329309 4.3147 0.725309 2.8267C0.970749 1.9027 1.69331 1.1747 2.61075 0.92798C4.03731 0.5427 9.14275 0.48798 10.5707 0.47998H11.32Z" fill="black"/>
</svg>
