<svg width="19" height="24" viewBox="0 0 19 24" fill="none" xmlns="http://www.w3.org/2000/svg">
<path fill-rule="evenodd" clip-rule="evenodd" d="M10.8345 0C11.3679 0 11.8705 0.208 12.2479 0.58528L18.1345 6.472C18.5079 6.84778 18.7182 7.35553 18.7199 7.88528V22C18.7199 23.1027 17.8225 24 16.7199 24H2.05322C0.950503 24 0.0532227 23.1027 0.0532227 22V2C0.0532227 0.89728 0.950503 0 2.05322 0H10.8345ZM10.7199 1.33328H2.05322C1.87649 1.33358 1.70708 1.40391 1.58211 1.52888C1.45714 1.65385 1.3868 1.82327 1.3865 2V22C1.3868 22.1767 1.45714 22.3461 1.58211 22.4711C1.70708 22.5961 1.87649 22.6664 2.05322 22.6667H16.7199C17.0879 22.6667 17.3865 22.3667 17.3865 22V8H12.7199C11.6172 8 10.7199 7.10272 10.7199 6V1.33328ZM13.3865 16V17.3333H5.3865V16H13.3865ZM13.3865 12V13.3333H5.3865V12H13.3865ZM12.0532 2.276V6C12.0535 6.17673 12.1239 6.34615 12.2488 6.47112C12.3738 6.59609 12.5432 6.66642 12.7199 6.66672H16.4439L12.0532 2.276Z" fill="black"/>
</svg>
