<svg width="22" height="22" viewBox="0 0 22 22" fill="none" xmlns="http://www.w3.org/2000/svg">
<path fill-rule="evenodd" clip-rule="evenodd" d="M10.9467 0.280029V1.61331H2.28003C2.1033 1.61361 1.93388 1.68394 1.80891 1.80891C1.68394 1.93388 1.61361 2.1033 1.61331 2.28003V19.6133C1.61361 19.79 1.68394 19.9595 1.80891 20.0844C1.93388 20.2094 2.1033 20.2797 2.28003 20.28H19.6133C19.9813 20.28 20.28 19.98 20.28 19.6133V10.9467H21.6133V19.6133C21.6133 20.716 20.716 21.6133 19.6133 21.6133H2.28003C1.17731 21.6133 0.280029 20.716 0.280029 19.6133V2.28003C0.280029 1.17731 1.17731 0.280029 2.28003 0.280029H10.9467ZM21.6133 0.280029V6.94675H20.28V2.55603L11.8933 10.9427L10.9507 10L19.3373 1.61331H14.9467V0.280029H21.6133Z" fill="black"/>
</svg>
