<svg width="24" height="24" viewBox="0 0 24 24" fill="none" xmlns="http://www.w3.org/2000/svg">
<path fill-rule="evenodd" clip-rule="evenodd" d="M10.6583 0.39204C11.1716 -0.13068 12.081 -0.13068 12.5943 0.39204L14.6903 2.52132L17.6596 2.03732C18.0183 1.97476 18.381 2.06132 18.6796 2.27604C18.8255 2.38218 18.9489 2.5163 19.0426 2.67059C19.1362 2.82489 19.1982 2.99627 19.225 3.17476L19.669 6.12932L22.3543 7.48276C22.5158 7.56307 22.6596 7.67486 22.7773 7.81156C22.895 7.94825 22.9842 8.1071 23.0396 8.27876C23.0956 8.45023 23.1167 8.63119 23.1016 8.81095C23.0865 8.99072 23.0355 9.16562 22.9516 9.32532L21.5756 11.9748L22.953 14.6493C23.0364 14.8087 23.087 14.9833 23.1019 15.1626C23.1168 15.3419 23.0956 15.5223 23.0396 15.6933C22.9844 15.8651 22.8955 16.0241 22.7781 16.1611C22.6606 16.298 22.5169 16.4101 22.3556 16.4908L19.681 17.8253L19.225 20.7973C19.1984 20.9759 19.1365 21.1473 19.0428 21.3016C18.9491 21.4559 18.8257 21.59 18.6796 21.696C18.5335 21.8012 18.3681 21.8765 18.1928 21.9177C18.0176 21.9589 17.8359 21.9651 17.6583 21.936L14.7116 21.444L12.5943 23.5813C12.4682 23.7102 12.3176 23.8124 12.1513 23.8821C11.9851 23.9517 11.8065 23.9873 11.6263 23.9868C11.4462 23.9873 11.2679 23.9517 11.1018 23.8821C10.9358 23.8124 10.7854 23.7101 10.6596 23.5813L8.56228 21.4508L5.59428 21.936C5.41684 21.9654 5.23533 21.9594 5.06025 21.9182C4.88518 21.877 4.72 21.8015 4.57428 21.696C4.42799 21.5902 4.30437 21.4562 4.21072 21.3018C4.11707 21.1475 4.05528 20.9759 4.029 20.7973L3.585 17.8428L0.898281 16.4908C0.736588 16.4103 0.592644 16.2983 0.474946 16.1614C0.357247 16.0244 0.26818 15.8653 0.213001 15.6933C0.157294 15.522 0.136383 15.3413 0.151495 15.1618C0.166606 14.9823 0.217437 14.8076 0.301001 14.648L1.67828 11.9973L0.301001 9.32404C0.217437 9.16446 0.166606 8.98979 0.151495 8.81028C0.136383 8.63078 0.157294 8.45007 0.213001 8.27876C0.26837 8.10727 0.357382 7.94854 0.474828 7.81187C0.592274 7.67519 0.735797 7.56331 0.897001 7.48276L3.57156 6.14804L4.029 3.17476C4.05545 2.99619 4.11731 2.82471 4.21095 2.67038C4.30459 2.51604 4.42812 2.38197 4.57428 2.27604C4.71966 2.17 4.88486 2.09423 5.06007 2.05322C5.23528 2.01222 5.41694 2.00681 5.59428 2.03732L8.541 2.52804L10.6583 0.39204ZM11.6263 1.32004L9.513 3.45604C9.35996 3.6119 9.17152 3.72846 8.96372 3.79579C8.75592 3.86313 8.53493 3.87924 8.31956 3.84276L5.37556 3.35204L4.90356 6.32676C4.87146 6.54241 4.7878 6.74714 4.65966 6.92354C4.53153 7.09995 4.36272 7.24282 4.16756 7.34004L1.49428 8.67476L2.86228 11.36C2.96151 11.5536 3.01327 11.7679 3.01327 11.9854C3.01327 12.2029 2.96151 12.4172 2.86228 12.6108L1.48356 15.264L4.16756 16.632C4.3626 16.7294 4.53132 16.8723 4.65943 17.0487C4.78754 17.2251 4.87128 17.4297 4.90356 17.6453L5.34756 20.6L8.32228 20.1293C8.39665 20.1161 8.47203 20.1094 8.54756 20.1093C8.7274 20.1098 8.90534 20.1461 9.07107 20.2159C9.2368 20.2857 9.38701 20.3877 9.513 20.516L11.609 22.6468L13.7396 20.516C13.8927 20.3603 14.0811 20.2438 14.2889 20.1765C14.4967 20.1092 14.7176 20.093 14.933 20.1293L17.8783 20.62L18.3503 17.6453C18.3823 17.4296 18.4659 17.2249 18.5941 17.0485C18.7222 16.872 18.8911 16.7292 19.0863 16.632L21.7596 15.2973L20.3916 12.612C20.2917 12.4187 20.2396 12.2043 20.2396 11.9867C20.2396 11.7691 20.2917 11.5547 20.3916 11.3613L21.769 8.70932L19.0863 7.34004C18.891 7.24305 18.722 7.10024 18.5938 6.9238C18.4657 6.74735 18.3821 6.54251 18.3503 6.32676L17.9063 3.37332L14.9303 3.84276C14.497 3.91876 14.0516 3.77204 13.7396 3.45604L11.6436 1.32676L11.638 1.32292L11.6263 1.32004ZM15.2098 8.81188L16.1524 9.7546L10.2751 15.6319L7.10036 12.4573L8.04308 11.5146L10.2751 13.7466L15.2098 8.81188Z" fill="black"/>
</svg>
