<svg width="26" height="26" viewBox="0 0 26 26" fill="none" xmlns="http://www.w3.org/2000/svg">
<g clip-path="url(#clip0_17_3274)">
<path d="M0 13C0 9.55219 1.36964 6.24558 3.80761 3.80761C6.24558 1.36964 9.55219 0 13 0C16.4478 0 19.7544 1.36964 22.1924 3.80761C24.6304 6.24558 26 9.55219 26 13C26 16.4478 24.6304 19.7544 22.1924 22.1924C19.7544 24.6304 16.4478 26 13 26C9.55219 26 6.24558 24.6304 3.80761 22.1924C1.36964 19.7544 0 16.4478 0 13Z" fill="#001B41"/>
<path d="M18.1436 9.97534C18.1008 10.0184 18.05 10.0525 17.9939 10.0758C17.9379 10.0991 17.8778 10.1111 17.8172 10.1111H6.24139C6.14992 10.1106 6.0606 10.0833 5.98456 10.0324C5.90852 9.98156 5.8491 9.90948 5.8137 9.82513C5.7783 9.74078 5.76847 9.64789 5.78545 9.558C5.80242 9.46811 5.84545 9.38519 5.90917 9.31956L7.80861 7.36234C7.85173 7.31785 7.90337 7.28252 7.96045 7.25844C8.01753 7.23437 8.07888 7.22205 8.14084 7.22223H19.7599C20.1702 7.22223 20.3767 7.72345 20.0864 8.01668L18.1436 9.97534Z" fill="url(#paint0_linear_17_3274)"/>
<path d="M18.1436 18.642C18.1008 18.685 18.05 18.7191 17.9939 18.7424C17.9379 18.7657 17.8778 18.7778 17.8172 18.7778H6.24139C6.14992 18.7773 6.0606 18.7499 5.98456 18.6991C5.90852 18.6482 5.8491 18.5761 5.8137 18.4918C5.7783 18.4074 5.76847 18.3145 5.78545 18.2247C5.80242 18.1348 5.84545 18.0519 5.90917 17.9862L7.80861 16.029C7.85173 15.9845 7.90337 15.9492 7.96045 15.9251C8.01753 15.901 8.07888 15.8887 8.14084 15.8889H19.7599C20.1702 15.8889 20.3767 16.3901 20.0864 16.6833L18.1436 18.642Z" fill="url(#paint1_linear_17_3274)"/>
<path d="M18.1436 11.6913C18.1008 11.6483 18.05 11.6142 17.9939 11.5909C17.9379 11.5676 17.8778 11.5556 17.8172 11.5555H6.24139C6.14992 11.556 6.0606 11.5834 5.98456 11.6343C5.90852 11.6851 5.8491 11.7572 5.8137 11.8415C5.7783 11.9259 5.76847 12.0188 5.78545 12.1087C5.80242 12.1986 5.84545 12.2815 5.90917 12.3471L7.80861 14.3043C7.89528 14.3939 8.01517 14.4444 8.14084 14.4444H19.7599C19.8515 14.4434 19.9407 14.4154 20.0165 14.3639C20.0923 14.3125 20.1513 14.2399 20.1861 14.1552C20.2209 14.0705 20.23 13.9775 20.2122 13.8876C20.1945 13.7978 20.1508 13.7151 20.0864 13.65L18.1436 11.6913Z" fill="url(#paint2_linear_17_3274)"/>
</g>
<defs>
<linearGradient id="paint0_linear_17_3274" x1="5.77772" y1="9.52034" x2="20.2193" y2="7.19912" gradientUnits="userSpaceOnUse">
<stop stop-color="#599DB0"/>
<stop offset="1" stop-color="#47F8C3"/>
</linearGradient>
<linearGradient id="paint1_linear_17_3274" x1="5.77772" y1="18.3141" x2="20.2323" y2="16.3699" gradientUnits="userSpaceOnUse">
<stop stop-color="#C44FE2"/>
<stop offset="1" stop-color="#73B0D0"/>
</linearGradient>
<linearGradient id="paint2_linear_17_3274" x1="6.60684" y1="13" x2="19.6603" y2="13" gradientUnits="userSpaceOnUse">
<stop stop-color="#778CBF"/>
<stop offset="1" stop-color="#5DCDC9"/>
</linearGradient>
<clipPath id="clip0_17_3274">
<rect width="26" height="26" fill="white"/>
</clipPath>
</defs>
</svg>
