<svg width="37" height="32" viewBox="0 0 37 32" fill="none" xmlns="http://www.w3.org/2000/svg">
<path d="M18.307 31.9999C15.1374 31.9802 11.9635 31.4093 9.37793 30.368C-0.34303 26.4635 -3.12107 12.9364 3.96622 5.35908C6.35409 2.78805 9.51204 1.06168 12.9653 0.439539C16.5199 -0.159819 21.0763 -0.203568 24.5587 0.671406C32.0594 2.54823 37.2327 9.6727 36.5021 17.309C36.243 20.004 35.3044 22.5891 33.7741 24.8225C32.2438 27.0559 30.172 28.8646 27.7524 30.0793C25.0728 31.4136 21.6866 32.0217 18.307 31.9999ZM15.5553 15.955C15.5553 14.4238 15.5356 12.9035 15.5553 11.3789C15.5662 10.8583 15.4087 10.6899 14.8837 10.703C13.5034 10.7358 12.121 10.6855 10.7407 10.7227C9.73886 10.7489 8.33452 10.2633 7.84235 10.9217C7.35018 11.5801 7.71546 12.9385 7.66297 13.9841C7.6389 14.5047 7.81173 14.6535 8.33452 14.6666C9.40637 14.6885 10.9201 14.1744 11.4385 14.8744C11.9569 15.5744 11.5654 17.0312 11.6157 18.1556C11.6594 19.1574 11.1541 20.5618 11.8235 21.0496C12.4928 21.5374 13.8447 21.1699 14.8859 21.2224C15.424 21.2486 15.5574 21.0452 15.5421 20.5377C15.5377 19.0087 15.5553 17.4819 15.5553 15.955ZM19.4926 21.2049C21.1288 21.2049 22.6513 21.2049 24.1737 21.2049C24.5456 21.2049 24.7775 21.1152 24.9175 20.7433C26.1468 17.4228 27.3914 14.1066 28.6623 10.7052C27.0261 10.7052 25.5037 10.7052 23.9791 10.7052C23.6094 10.7052 23.3753 10.7927 23.2375 11.1667C22.0082 14.4894 20.7657 17.8056 19.4948 21.2071L19.4926 21.2049ZM20.7854 12.6739C20.8051 11.6917 19.8382 10.7249 18.832 10.7227C17.8805 10.7227 16.9137 11.6283 16.8743 12.5601C16.8283 13.6057 17.793 14.6294 18.8276 14.6316C19.8164 14.636 20.7679 13.6866 20.7876 12.6782L20.7854 12.6739Z" fill="#363A45"/>
</svg>
