<svg width="18" height="18" viewBox="0 0 18 18" fill="none" xmlns="http://www.w3.org/2000/svg">
<path d="M6 14H12V12H8V10H10C10.55 10 11.021 9.804 11.413 9.412C11.805 9.02 12.0007 8.54934 12 8V6C12 5.45 11.804 4.979 11.412 4.587C11.02 4.195 10.5493 3.99934 10 4H6V6H10V8H8C7.45 8 6.979 8.196 6.587 8.588C6.195 8.98 5.99934 9.45067 6 10V14ZM2 18C1.45 18 0.979002 17.804 0.587002 17.412C0.195002 17.02 -0.000664969 16.5493 1.69779e-06 16V2C1.69779e-06 1.45 0.196002 0.979002 0.588002 0.587002C0.980002 0.195002 1.45067 -0.000664969 2 1.69779e-06H16C16.55 1.69779e-06 17.021 0.196002 17.413 0.588002C17.805 0.980002 18.0007 1.45067 18 2V16C18 16.55 17.804 17.021 17.412 17.413C17.02 17.805 16.5493 18.0007 16 18H2ZM2 16H16V2H2V16Z" fill="#003D8F"/>
</svg>
