<svg width="70" height="118" viewBox="0 0 70 118" fill="none" xmlns="http://www.w3.org/2000/svg">
<path d="M30.125 0.5V10.3963C16.6213 11.3859 5.75 22.7105 5.75 36.4531C5.75 49.0501 14.837 59.7946 27.2292 62.0469L30.125 62.6562V98H27.0781C24.9162 98.0045 22.7747 97.582 20.7765 96.7567C18.7783 95.9315 16.9627 94.7197 15.434 93.191C13.9053 91.6623 12.6935 89.8467 11.8683 87.8485C11.043 85.8503 10.6205 83.7088 10.625 81.5469V73.625H0.875V81.5469C0.875 95.9281 12.7018 107.75 27.0781 107.75H30.125V117.5H39.875V107.75H42.9219C57.2934 107.75 69.125 95.9232 69.125 81.5469C69.125 68.9499 60.0429 58.2054 47.6457 55.9531L39.875 54.4272V20.156C43.8941 20.5891 47.6111 22.4931 50.3109 25.5016C53.0108 28.5102 54.5028 32.4108 54.5 36.4531V44.375H64.25V36.4531C64.25 22.7056 53.3787 11.3859 39.875 10.4011V0.5H30.125ZM30.125 20.1462V52.604L28.9062 52.448C25.1419 51.7979 21.7297 49.835 19.2754 46.9076C16.8211 43.9803 15.4835 40.278 15.5 36.458C15.4959 32.4143 16.9872 28.5119 19.6871 25.5015C22.3869 22.4911 26.1047 20.5855 30.125 20.1511V20.1462ZM39.875 64.4844L45.9688 65.5569C49.7335 66.206 53.1463 68.1687 55.6008 71.0963C58.0552 74.0238 59.3925 77.7266 59.375 81.5469C59.3789 83.7086 58.9559 85.8498 58.1304 87.8478C57.3049 89.8457 56.0932 91.661 54.5646 93.1896C53.036 94.7182 51.2207 95.9299 49.2228 96.7554C47.2248 97.5809 45.0836 98.0039 42.9219 98H39.875V64.4844Z" fill="black"/>
</svg>
